<svg xmlns="http://www.w3.org/2000/svg" xmlns:xlink="http://www.w3.org/1999/xlink" width="1920" height="612" viewBox="0 0 1920 612"><defs><style>.a,.d{fill:#6d9ddf;}.a{stroke:#dbc9c9;}.b{mix-blend-mode:overlay;isolation:isolate;}.c{clip-path:url(#a);}.d{fill-rule:evenodd;}.e{clip-path:url(#c);}.f{clip-path:url(#d);}.g{clip-path:url(#e);}.h{clip-path:url(#f);}</style><clipPath id="a"><rect class="a" width="227" height="138"/></clipPath><clipPath id="c"><rect class="a" width="227" height="138" transform="translate(0.286)"/></clipPath><clipPath id="d"><rect class="a" width="227" height="138" transform="translate(0.429)"/></clipPath><clipPath id="e"><rect class="a" width="227" height="138" transform="translate(-0.429)"/></clipPath><clipPath id="f"><rect class="a" width="227" height="138" transform="translate(-0.286)"/></clipPath></defs><g class="b"><g class="c"><g transform="translate(0 5.329)"><path class="d" d="M0,0H33.22V16.61H0ZM77.512,22.146h33.22v16.61H77.512ZM116.268,0h33.22V16.61h-33.22Zm38.756,0h33.22V16.61h-33.22Zm0,22.146h33.22v16.61h-33.22Zm-38.756,0h33.22v16.61h-33.22Zm0,44.293h33.22v16.61h-33.22Zm38.756-22.146h33.22V60.9h-33.22Zm38.756,0H227V60.9H193.78ZM193.78,0H227V16.61H193.78ZM77.512,88.585h33.22V105.2H77.512ZM38.756,44.293h33.22V60.9H38.756ZM0,66.439H33.22v16.61H0ZM0,88.585H33.22V105.2H0Zm38.756,0h33.22V105.2H38.756Zm38.756,22.146h33.22v16.61H77.512Zm-38.756,0h33.22v16.61H38.756Zm77.512,0h33.22v16.61h-33.22Zm38.756-22.146h33.22V105.2h-33.22Zm0-22.146h33.22v16.61h-33.22ZM193.78,88.585H227V105.2H193.78Zm0,22.146H227v16.61H193.78ZM38.756,66.439h33.22v16.61H38.756ZM77.512,44.293h33.22V60.9H77.512ZM38.756,22.146h33.22v16.61H38.756ZM0,22.146H33.22v16.61H0Z"/></g></g><g class="c" transform="translate(247)"><g transform="translate(0 5.329)"><path class="d" d="M0,0H33.22V16.61H0ZM77.512,22.146h33.22v16.61H77.512ZM116.268,0h33.22V16.61h-33.22Zm38.756,0h33.22V16.61h-33.22Zm0,22.146h33.22v16.61h-33.22Zm-38.756,0h33.22v16.61h-33.22Zm0,44.293h33.22v16.61h-33.22Zm38.756-22.146h33.22V60.9h-33.22Zm38.756,0H227V60.9H193.78ZM193.78,0H227V16.61H193.78ZM77.512,88.585h33.22V105.2H77.512ZM38.756,44.293h33.22V60.9H38.756ZM0,66.439H33.22v16.61H0ZM0,88.585H33.22V105.2H0Zm38.756,0h33.22V105.2H38.756Zm38.756,22.146h33.22v16.61H77.512Zm-38.756,0h33.22v16.61H38.756Zm77.512,0h33.22v16.61h-33.22Zm38.756-22.146h33.22V105.2h-33.22Zm0-22.146h33.22v16.61h-33.22ZM193.78,88.585H227V105.2H193.78Zm0,22.146H227v16.61H193.78ZM38.756,66.439h33.22v16.61H38.756ZM77.512,44.293h33.22V60.9H77.512ZM38.756,22.146h33.22v16.61H38.756ZM0,22.146H33.22v16.61H0Z"/></g></g><g class="e" transform="translate(483.714)"><g transform="translate(0 5.329)"><path class="d" d="M0,0H33.22V16.61H0ZM77.512,22.146h33.22v16.61H77.512ZM116.268,0h33.22V16.61h-33.22Zm38.756,0h33.22V16.61h-33.22Zm0,22.146h33.22v16.61h-33.22Zm-38.756,0h33.22v16.61h-33.22Zm0,44.293h33.22v16.61h-33.22Zm38.756-22.146h33.22V60.9h-33.22Zm38.756,0H227V60.9H193.78ZM193.78,0H227V16.61H193.78ZM77.512,88.585h33.22V105.2H77.512ZM38.756,44.293h33.22V60.9H38.756ZM0,66.439H33.22v16.61H0ZM0,88.585H33.22V105.2H0Zm38.756,0h33.22V105.2H38.756Zm38.756,22.146h33.22v16.61H77.512Zm-38.756,0h33.22v16.61H38.756Zm77.512,0h33.22v16.61h-33.22Zm38.756-22.146h33.22V105.2h-33.22Zm0-22.146h33.22v16.61h-33.22ZM193.78,88.585H227V105.2H193.78Zm0,22.146H227v16.61H193.78ZM38.756,66.439h33.22v16.61H38.756ZM77.512,44.293h33.22V60.9H77.512ZM38.756,22.146h33.22v16.61H38.756ZM0,22.146H33.22v16.61H0Z"/></g></g><g class="f" transform="translate(725.571)"><g transform="translate(0 5.329)"><path class="d" d="M0,0H33.22V16.61H0ZM77.512,22.146h33.22v16.61H77.512ZM116.268,0h33.22V16.61h-33.22Zm38.756,0h33.22V16.61h-33.22Zm0,22.146h33.22v16.61h-33.22Zm-38.756,0h33.22v16.61h-33.22Zm0,44.293h33.22v16.61h-33.22Zm38.756-22.146h33.22V60.9h-33.22Zm38.756,0H227V60.9H193.78ZM193.78,0H227V16.61H193.78ZM77.512,88.585h33.22V105.2H77.512ZM38.756,44.293h33.22V60.9H38.756ZM0,66.439H33.22v16.61H0ZM0,88.585H33.22V105.2H0Zm38.756,0h33.22V105.2H38.756Zm38.756,22.146h33.22v16.61H77.512Zm-38.756,0h33.22v16.61H38.756Zm77.512,0h33.22v16.61h-33.22Zm38.756-22.146h33.22V105.2h-33.22Zm0-22.146h33.22v16.61h-33.22ZM193.78,88.585H227V105.2H193.78Zm0,22.146H227v16.61H193.78ZM38.756,66.439h33.22v16.61H38.756ZM77.512,44.293h33.22V60.9H77.512ZM38.756,22.146h33.22v16.61H38.756ZM0,22.146H33.22v16.61H0Z"/></g></g><g class="g" transform="translate(967.429)"><g transform="translate(0 5.329)"><path class="d" d="M0,0H33.22V16.61H0ZM77.512,22.146h33.22v16.61H77.512ZM116.268,0h33.22V16.61h-33.22Zm38.756,0h33.22V16.61h-33.22Zm0,22.146h33.22v16.61h-33.22Zm-38.756,0h33.22v16.61h-33.22Zm0,44.293h33.22v16.61h-33.22Zm38.756-22.146h33.22V60.9h-33.22Zm38.756,0H227V60.9H193.78ZM193.78,0H227V16.61H193.78ZM77.512,88.585h33.22V105.2H77.512ZM38.756,44.293h33.22V60.9H38.756ZM0,66.439H33.22v16.61H0ZM0,88.585H33.22V105.2H0Zm38.756,0h33.22V105.2H38.756Zm38.756,22.146h33.22v16.61H77.512Zm-38.756,0h33.22v16.61H38.756Zm77.512,0h33.22v16.61h-33.22Zm38.756-22.146h33.22V105.2h-33.22Zm0-22.146h33.22v16.61h-33.22ZM193.78,88.585H227V105.2H193.78Zm0,22.146H227v16.61H193.78ZM38.756,66.439h33.22v16.61H38.756ZM77.512,44.293h33.22V60.9H77.512ZM38.756,22.146h33.22v16.61H38.756ZM0,22.146H33.22v16.61H0Z"/></g></g><g class="h" transform="translate(1209.286)"><g transform="translate(0 5.329)"><path class="d" d="M0,0H33.22V16.61H0ZM77.512,22.146h33.22v16.61H77.512ZM116.268,0h33.22V16.61h-33.22Zm38.756,0h33.22V16.61h-33.22Zm0,22.146h33.22v16.61h-33.22Zm-38.756,0h33.22v16.61h-33.22Zm0,44.293h33.22v16.61h-33.22Zm38.756-22.146h33.22V60.9h-33.22Zm38.756,0H227V60.9H193.78ZM193.78,0H227V16.61H193.78ZM77.512,88.585h33.22V105.2H77.512ZM38.756,44.293h33.22V60.9H38.756ZM0,66.439H33.22v16.61H0ZM0,88.585H33.22V105.2H0Zm38.756,0h33.22V105.2H38.756Zm38.756,22.146h33.22v16.61H77.512Zm-38.756,0h33.22v16.61H38.756Zm77.512,0h33.22v16.61h-33.22Zm38.756-22.146h33.22V105.2h-33.22Zm0-22.146h33.22v16.61h-33.22ZM193.78,88.585H227V105.2H193.78Zm0,22.146H227v16.61H193.78ZM38.756,66.439h33.22v16.61H38.756ZM77.512,44.293h33.22V60.9H77.512ZM38.756,22.146h33.22v16.61H38.756ZM0,22.146H33.22v16.61H0Z"/></g></g><g class="c" transform="translate(1446)"><g transform="translate(0 5.329)"><path class="d" d="M0,0H33.22V16.61H0ZM77.512,22.146h33.22v16.61H77.512ZM116.268,0h33.22V16.61h-33.22Zm38.756,0h33.22V16.61h-33.22Zm0,22.146h33.22v16.61h-33.22Zm-38.756,0h33.22v16.61h-33.22Zm0,44.293h33.22v16.61h-33.22Zm38.756-22.146h33.22V60.9h-33.22Zm38.756,0H227V60.9H193.78ZM193.78,0H227V16.61H193.78ZM77.512,88.585h33.22V105.2H77.512ZM38.756,44.293h33.22V60.9H38.756ZM0,66.439H33.22v16.61H0ZM0,88.585H33.22V105.2H0Zm38.756,0h33.22V105.2H38.756Zm38.756,22.146h33.22v16.61H77.512Zm-38.756,0h33.22v16.61H38.756Zm77.512,0h33.22v16.61h-33.22Zm38.756-22.146h33.22V105.2h-33.22Zm0-22.146h33.22v16.61h-33.22ZM193.78,88.585H227V105.2H193.78Zm0,22.146H227v16.61H193.78ZM38.756,66.439h33.22v16.61H38.756ZM77.512,44.293h33.22V60.9H77.512ZM38.756,22.146h33.22v16.61H38.756ZM0,22.146H33.22v16.61H0Z"/></g></g><g class="c" transform="translate(1693)"><g transform="translate(0 5.329)"><path class="d" d="M0,0H33.22V16.61H0ZM77.512,22.146h33.22v16.61H77.512ZM116.268,0h33.22V16.61h-33.22Zm38.756,0h33.22V16.61h-33.22Zm0,22.146h33.22v16.61h-33.22Zm-38.756,0h33.22v16.61h-33.22Zm0,44.293h33.22v16.61h-33.22Zm38.756-22.146h33.22V60.9h-33.22Zm38.756,0H227V60.9H193.78ZM193.78,0H227V16.61H193.78ZM77.512,88.585h33.22V105.2H77.512ZM38.756,44.293h33.22V60.9H38.756ZM0,66.439H33.22v16.61H0ZM0,88.585H33.22V105.2H0Zm38.756,0h33.22V105.2H38.756Zm38.756,22.146h33.22v16.61H77.512Zm-38.756,0h33.22v16.61H38.756Zm77.512,0h33.22v16.61h-33.22Zm38.756-22.146h33.22V105.2h-33.22Zm0-22.146h33.22v16.61h-33.22ZM193.78,88.585H227V105.2H193.78Zm0,22.146H227v16.61H193.78ZM38.756,66.439h33.22v16.61H38.756ZM77.512,44.293h33.22V60.9H77.512ZM38.756,22.146h33.22v16.61H38.756ZM0,22.146H33.22v16.61H0Z"/></g></g><g class="c" transform="translate(0 158)"><g transform="translate(0 5.329)"><path class="d" d="M0,0H33.22V16.61H0ZM77.512,22.146h33.22v16.61H77.512ZM116.268,0h33.22V16.61h-33.22Zm38.756,0h33.22V16.61h-33.22Zm0,22.146h33.22v16.61h-33.22Zm-38.756,0h33.22v16.61h-33.22Zm0,44.293h33.22v16.61h-33.22Zm38.756-22.146h33.22V60.9h-33.22Zm38.756,0H227V60.9H193.78ZM193.78,0H227V16.61H193.78ZM77.512,88.585h33.22V105.2H77.512ZM38.756,44.293h33.22V60.9H38.756ZM0,66.439H33.22v16.61H0ZM0,88.585H33.22V105.2H0Zm38.756,0h33.22V105.2H38.756Zm38.756,22.146h33.22v16.61H77.512Zm-38.756,0h33.22v16.61H38.756Zm77.512,0h33.22v16.61h-33.22Zm38.756-22.146h33.22V105.2h-33.22Zm0-22.146h33.22v16.61h-33.22ZM193.78,88.585H227V105.2H193.78Zm0,22.146H227v16.61H193.78ZM38.756,66.439h33.22v16.61H38.756ZM77.512,44.293h33.22V60.9H77.512ZM38.756,22.146h33.22v16.61H38.756ZM0,22.146H33.22v16.61H0Z"/></g></g><g class="c" transform="translate(247 158)"><g transform="translate(0 5.329)"><path class="d" d="M0,0H33.22V16.61H0ZM77.512,22.146h33.22v16.61H77.512ZM116.268,0h33.22V16.61h-33.22Zm38.756,0h33.22V16.61h-33.22Zm0,22.146h33.22v16.61h-33.22Zm-38.756,0h33.22v16.61h-33.22Zm0,44.293h33.22v16.61h-33.22Zm38.756-22.146h33.22V60.9h-33.22Zm38.756,0H227V60.9H193.78ZM193.78,0H227V16.61H193.78ZM77.512,88.585h33.22V105.2H77.512ZM38.756,44.293h33.22V60.9H38.756ZM0,66.439H33.22v16.61H0ZM0,88.585H33.22V105.2H0Zm38.756,0h33.22V105.2H38.756Zm38.756,22.146h33.22v16.61H77.512Zm-38.756,0h33.22v16.61H38.756Zm77.512,0h33.22v16.61h-33.22Zm38.756-22.146h33.22V105.2h-33.22Zm0-22.146h33.22v16.61h-33.22ZM193.78,88.585H227V105.2H193.78Zm0,22.146H227v16.61H193.78ZM38.756,66.439h33.22v16.61H38.756ZM77.512,44.293h33.22V60.9H77.512ZM38.756,22.146h33.22v16.61H38.756ZM0,22.146H33.22v16.61H0Z"/></g></g><g class="e" transform="translate(483.714 158)"><g transform="translate(0 5.329)"><path class="d" d="M0,0H33.22V16.61H0ZM77.512,22.146h33.22v16.61H77.512ZM116.268,0h33.22V16.61h-33.22Zm38.756,0h33.22V16.61h-33.22Zm0,22.146h33.22v16.61h-33.22Zm-38.756,0h33.22v16.61h-33.22Zm0,44.293h33.22v16.61h-33.22Zm38.756-22.146h33.22V60.9h-33.22Zm38.756,0H227V60.9H193.78ZM193.78,0H227V16.61H193.78ZM77.512,88.585h33.22V105.2H77.512ZM38.756,44.293h33.22V60.9H38.756ZM0,66.439H33.22v16.61H0ZM0,88.585H33.22V105.2H0Zm38.756,0h33.22V105.2H38.756Zm38.756,22.146h33.22v16.61H77.512Zm-38.756,0h33.22v16.61H38.756Zm77.512,0h33.22v16.61h-33.22Zm38.756-22.146h33.22V105.2h-33.22Zm0-22.146h33.22v16.61h-33.22ZM193.78,88.585H227V105.2H193.78Zm0,22.146H227v16.61H193.78ZM38.756,66.439h33.22v16.61H38.756ZM77.512,44.293h33.22V60.9H77.512ZM38.756,22.146h33.22v16.61H38.756ZM0,22.146H33.22v16.61H0Z"/></g></g><g class="f" transform="translate(725.571 158)"><g transform="translate(0 5.329)"><path class="d" d="M0,0H33.22V16.61H0ZM77.512,22.146h33.22v16.61H77.512ZM116.268,0h33.22V16.61h-33.22Zm38.756,0h33.22V16.61h-33.22Zm0,22.146h33.22v16.61h-33.22Zm-38.756,0h33.22v16.61h-33.22Zm0,44.293h33.22v16.61h-33.22Zm38.756-22.146h33.22V60.9h-33.22Zm38.756,0H227V60.9H193.78ZM193.78,0H227V16.61H193.78ZM77.512,88.585h33.22V105.2H77.512ZM38.756,44.293h33.22V60.9H38.756ZM0,66.439H33.22v16.61H0ZM0,88.585H33.22V105.2H0Zm38.756,0h33.22V105.2H38.756Zm38.756,22.146h33.22v16.61H77.512Zm-38.756,0h33.22v16.61H38.756Zm77.512,0h33.22v16.61h-33.22Zm38.756-22.146h33.22V105.2h-33.22Zm0-22.146h33.22v16.61h-33.22ZM193.78,88.585H227V105.2H193.78Zm0,22.146H227v16.61H193.78ZM38.756,66.439h33.22v16.61H38.756ZM77.512,44.293h33.22V60.9H77.512ZM38.756,22.146h33.22v16.61H38.756ZM0,22.146H33.22v16.61H0Z"/></g></g><g class="g" transform="translate(967.429 158)"><g transform="translate(0 5.329)"><path class="d" d="M0,0H33.22V16.61H0ZM77.512,22.146h33.22v16.61H77.512ZM116.268,0h33.22V16.61h-33.22Zm38.756,0h33.22V16.61h-33.22Zm0,22.146h33.22v16.61h-33.22Zm-38.756,0h33.22v16.61h-33.22Zm0,44.293h33.22v16.61h-33.22Zm38.756-22.146h33.22V60.9h-33.22Zm38.756,0H227V60.9H193.78ZM193.78,0H227V16.61H193.78ZM77.512,88.585h33.22V105.2H77.512ZM38.756,44.293h33.22V60.9H38.756ZM0,66.439H33.22v16.61H0ZM0,88.585H33.22V105.2H0Zm38.756,0h33.22V105.2H38.756Zm38.756,22.146h33.22v16.61H77.512Zm-38.756,0h33.22v16.61H38.756Zm77.512,0h33.22v16.61h-33.22Zm38.756-22.146h33.22V105.2h-33.22Zm0-22.146h33.22v16.61h-33.22ZM193.78,88.585H227V105.2H193.78Zm0,22.146H227v16.61H193.78ZM38.756,66.439h33.22v16.61H38.756ZM77.512,44.293h33.22V60.9H77.512ZM38.756,22.146h33.22v16.61H38.756ZM0,22.146H33.22v16.61H0Z"/></g></g><g class="h" transform="translate(1209.286 158)"><g transform="translate(0 5.329)"><path class="d" d="M0,0H33.22V16.61H0ZM77.512,22.146h33.22v16.61H77.512ZM116.268,0h33.22V16.61h-33.22Zm38.756,0h33.22V16.61h-33.22Zm0,22.146h33.22v16.61h-33.22Zm-38.756,0h33.22v16.61h-33.22Zm0,44.293h33.22v16.61h-33.22Zm38.756-22.146h33.22V60.9h-33.22Zm38.756,0H227V60.9H193.78ZM193.78,0H227V16.61H193.78ZM77.512,88.585h33.22V105.2H77.512ZM38.756,44.293h33.22V60.9H38.756ZM0,66.439H33.22v16.61H0ZM0,88.585H33.22V105.2H0Zm38.756,0h33.22V105.2H38.756Zm38.756,22.146h33.22v16.61H77.512Zm-38.756,0h33.22v16.61H38.756Zm77.512,0h33.22v16.61h-33.22Zm38.756-22.146h33.22V105.2h-33.22Zm0-22.146h33.22v16.61h-33.22ZM193.78,88.585H227V105.2H193.78Zm0,22.146H227v16.61H193.78ZM38.756,66.439h33.22v16.61H38.756ZM77.512,44.293h33.22V60.9H77.512ZM38.756,22.146h33.22v16.61H38.756ZM0,22.146H33.22v16.61H0Z"/></g></g><g class="c" transform="translate(1446 158)"><g transform="translate(0 5.329)"><path class="d" d="M0,0H33.22V16.61H0ZM77.512,22.146h33.22v16.61H77.512ZM116.268,0h33.22V16.61h-33.22Zm38.756,0h33.22V16.61h-33.22Zm0,22.146h33.22v16.61h-33.22Zm-38.756,0h33.22v16.61h-33.22Zm0,44.293h33.22v16.61h-33.22Zm38.756-22.146h33.22V60.9h-33.22Zm38.756,0H227V60.9H193.78ZM193.78,0H227V16.61H193.78ZM77.512,88.585h33.22V105.2H77.512ZM38.756,44.293h33.22V60.9H38.756ZM0,66.439H33.22v16.61H0ZM0,88.585H33.22V105.2H0Zm38.756,0h33.22V105.2H38.756Zm38.756,22.146h33.22v16.61H77.512Zm-38.756,0h33.22v16.61H38.756Zm77.512,0h33.22v16.61h-33.22Zm38.756-22.146h33.22V105.2h-33.22Zm0-22.146h33.22v16.61h-33.22ZM193.78,88.585H227V105.2H193.78Zm0,22.146H227v16.61H193.78ZM38.756,66.439h33.22v16.61H38.756ZM77.512,44.293h33.22V60.9H77.512ZM38.756,22.146h33.22v16.61H38.756ZM0,22.146H33.22v16.61H0Z"/></g></g><g class="c" transform="translate(1693 158)"><g transform="translate(0 5.329)"><path class="d" d="M0,0H33.22V16.61H0ZM77.512,22.146h33.22v16.61H77.512ZM116.268,0h33.22V16.61h-33.22Zm38.756,0h33.22V16.61h-33.22Zm0,22.146h33.22v16.61h-33.22Zm-38.756,0h33.22v16.61h-33.22Zm0,44.293h33.22v16.61h-33.22Zm38.756-22.146h33.22V60.9h-33.22Zm38.756,0H227V60.9H193.78ZM193.78,0H227V16.61H193.78ZM77.512,88.585h33.22V105.2H77.512ZM38.756,44.293h33.22V60.9H38.756ZM0,66.439H33.22v16.61H0ZM0,88.585H33.22V105.2H0Zm38.756,0h33.22V105.2H38.756Zm38.756,22.146h33.22v16.61H77.512Zm-38.756,0h33.22v16.61H38.756Zm77.512,0h33.22v16.61h-33.22Zm38.756-22.146h33.22V105.2h-33.22Zm0-22.146h33.22v16.61h-33.22ZM193.78,88.585H227V105.2H193.78Zm0,22.146H227v16.61H193.78ZM38.756,66.439h33.22v16.61H38.756ZM77.512,44.293h33.22V60.9H77.512ZM38.756,22.146h33.22v16.61H38.756ZM0,22.146H33.22v16.61H0Z"/></g></g><g class="c" transform="translate(0 316)"><g transform="translate(0 5.329)"><path class="d" d="M0,0H33.22V16.61H0ZM77.512,22.146h33.22v16.61H77.512ZM116.268,0h33.22V16.61h-33.22Zm38.756,0h33.22V16.61h-33.22Zm0,22.146h33.22v16.61h-33.22Zm-38.756,0h33.22v16.61h-33.22Zm0,44.293h33.22v16.61h-33.22Zm38.756-22.146h33.22V60.9h-33.22Zm38.756,0H227V60.9H193.78ZM193.78,0H227V16.61H193.78ZM77.512,88.585h33.22V105.2H77.512ZM38.756,44.293h33.22V60.9H38.756ZM0,66.439H33.22v16.61H0ZM0,88.585H33.22V105.2H0Zm38.756,0h33.22V105.2H38.756Zm38.756,22.146h33.22v16.61H77.512Zm-38.756,0h33.22v16.61H38.756Zm77.512,0h33.22v16.61h-33.22Zm38.756-22.146h33.22V105.2h-33.22Zm0-22.146h33.22v16.61h-33.22ZM193.78,88.585H227V105.2H193.78Zm0,22.146H227v16.61H193.78ZM38.756,66.439h33.22v16.61H38.756ZM77.512,44.293h33.22V60.9H77.512ZM38.756,22.146h33.22v16.61H38.756ZM0,22.146H33.22v16.61H0Z"/></g></g><g class="c" transform="translate(247 316)"><g transform="translate(0 5.329)"><path class="d" d="M0,0H33.22V16.61H0ZM77.512,22.146h33.22v16.61H77.512ZM116.268,0h33.22V16.61h-33.22Zm38.756,0h33.22V16.61h-33.22Zm0,22.146h33.22v16.61h-33.22Zm-38.756,0h33.22v16.61h-33.22Zm0,44.293h33.22v16.61h-33.22Zm38.756-22.146h33.22V60.9h-33.22Zm38.756,0H227V60.9H193.78ZM193.78,0H227V16.61H193.78ZM77.512,88.585h33.22V105.2H77.512ZM38.756,44.293h33.22V60.9H38.756ZM0,66.439H33.22v16.61H0ZM0,88.585H33.22V105.2H0Zm38.756,0h33.22V105.2H38.756Zm38.756,22.146h33.22v16.61H77.512Zm-38.756,0h33.22v16.61H38.756Zm77.512,0h33.22v16.61h-33.22Zm38.756-22.146h33.22V105.2h-33.22Zm0-22.146h33.22v16.61h-33.22ZM193.78,88.585H227V105.2H193.78Zm0,22.146H227v16.61H193.78ZM38.756,66.439h33.22v16.61H38.756ZM77.512,44.293h33.22V60.9H77.512ZM38.756,22.146h33.22v16.61H38.756ZM0,22.146H33.22v16.61H0Z"/></g></g><g class="e" transform="translate(483.714 316)"><g transform="translate(0 5.329)"><path class="d" d="M0,0H33.22V16.61H0ZM77.512,22.146h33.22v16.61H77.512ZM116.268,0h33.22V16.61h-33.22Zm38.756,0h33.22V16.61h-33.22Zm0,22.146h33.22v16.61h-33.22Zm-38.756,0h33.22v16.61h-33.22Zm0,44.293h33.22v16.61h-33.22Zm38.756-22.146h33.22V60.9h-33.22Zm38.756,0H227V60.9H193.78ZM193.78,0H227V16.61H193.78ZM77.512,88.585h33.22V105.2H77.512ZM38.756,44.293h33.22V60.9H38.756ZM0,66.439H33.22v16.61H0ZM0,88.585H33.22V105.2H0Zm38.756,0h33.22V105.2H38.756Zm38.756,22.146h33.22v16.61H77.512Zm-38.756,0h33.22v16.61H38.756Zm77.512,0h33.22v16.61h-33.22Zm38.756-22.146h33.22V105.2h-33.22Zm0-22.146h33.22v16.61h-33.22ZM193.78,88.585H227V105.2H193.78Zm0,22.146H227v16.61H193.78ZM38.756,66.439h33.22v16.61H38.756ZM77.512,44.293h33.22V60.9H77.512ZM38.756,22.146h33.22v16.61H38.756ZM0,22.146H33.22v16.61H0Z"/></g></g><g class="f" transform="translate(725.571 316)"><g transform="translate(0 5.329)"><path class="d" d="M0,0H33.22V16.61H0ZM77.512,22.146h33.22v16.61H77.512ZM116.268,0h33.22V16.61h-33.22Zm38.756,0h33.22V16.61h-33.22Zm0,22.146h33.22v16.61h-33.22Zm-38.756,0h33.22v16.61h-33.22Zm0,44.293h33.22v16.61h-33.22Zm38.756-22.146h33.22V60.9h-33.22Zm38.756,0H227V60.9H193.78ZM193.78,0H227V16.61H193.78ZM77.512,88.585h33.22V105.2H77.512ZM38.756,44.293h33.22V60.9H38.756ZM0,66.439H33.22v16.61H0ZM0,88.585H33.22V105.2H0Zm38.756,0h33.22V105.2H38.756Zm38.756,22.146h33.22v16.61H77.512Zm-38.756,0h33.22v16.61H38.756Zm77.512,0h33.22v16.61h-33.22Zm38.756-22.146h33.22V105.2h-33.22Zm0-22.146h33.22v16.61h-33.22ZM193.78,88.585H227V105.2H193.78Zm0,22.146H227v16.61H193.78ZM38.756,66.439h33.22v16.61H38.756ZM77.512,44.293h33.22V60.9H77.512ZM38.756,22.146h33.22v16.61H38.756ZM0,22.146H33.22v16.61H0Z"/></g></g><g class="g" transform="translate(967.429 316)"><g transform="translate(0 5.329)"><path class="d" d="M0,0H33.22V16.61H0ZM77.512,22.146h33.22v16.61H77.512ZM116.268,0h33.22V16.61h-33.22Zm38.756,0h33.22V16.61h-33.22Zm0,22.146h33.22v16.61h-33.22Zm-38.756,0h33.22v16.61h-33.22Zm0,44.293h33.22v16.61h-33.22Zm38.756-22.146h33.22V60.9h-33.22Zm38.756,0H227V60.9H193.78ZM193.78,0H227V16.61H193.78ZM77.512,88.585h33.22V105.2H77.512ZM38.756,44.293h33.22V60.9H38.756ZM0,66.439H33.22v16.61H0ZM0,88.585H33.22V105.2H0Zm38.756,0h33.22V105.2H38.756Zm38.756,22.146h33.22v16.61H77.512Zm-38.756,0h33.22v16.61H38.756Zm77.512,0h33.22v16.61h-33.22Zm38.756-22.146h33.22V105.2h-33.22Zm0-22.146h33.22v16.61h-33.22ZM193.78,88.585H227V105.2H193.78Zm0,22.146H227v16.61H193.78ZM38.756,66.439h33.22v16.61H38.756ZM77.512,44.293h33.22V60.9H77.512ZM38.756,22.146h33.22v16.61H38.756ZM0,22.146H33.22v16.61H0Z"/></g></g><g class="h" transform="translate(1209.286 316)"><g transform="translate(0 5.329)"><path class="d" d="M0,0H33.22V16.61H0ZM77.512,22.146h33.22v16.61H77.512ZM116.268,0h33.22V16.61h-33.22Zm38.756,0h33.22V16.61h-33.22Zm0,22.146h33.22v16.61h-33.22Zm-38.756,0h33.22v16.61h-33.22Zm0,44.293h33.22v16.61h-33.22Zm38.756-22.146h33.22V60.9h-33.22Zm38.756,0H227V60.9H193.78ZM193.78,0H227V16.61H193.78ZM77.512,88.585h33.22V105.2H77.512ZM38.756,44.293h33.22V60.9H38.756ZM0,66.439H33.22v16.61H0ZM0,88.585H33.22V105.2H0Zm38.756,0h33.22V105.2H38.756Zm38.756,22.146h33.22v16.61H77.512Zm-38.756,0h33.22v16.61H38.756Zm77.512,0h33.22v16.61h-33.22Zm38.756-22.146h33.22V105.2h-33.22Zm0-22.146h33.22v16.61h-33.22ZM193.78,88.585H227V105.2H193.78Zm0,22.146H227v16.61H193.78ZM38.756,66.439h33.22v16.61H38.756ZM77.512,44.293h33.22V60.9H77.512ZM38.756,22.146h33.22v16.61H38.756ZM0,22.146H33.22v16.61H0Z"/></g></g><g class="c" transform="translate(1446 316)"><g transform="translate(0 5.329)"><path class="d" d="M0,0H33.22V16.61H0ZM77.512,22.146h33.22v16.61H77.512ZM116.268,0h33.22V16.61h-33.22Zm38.756,0h33.22V16.61h-33.22Zm0,22.146h33.22v16.61h-33.22Zm-38.756,0h33.22v16.61h-33.22Zm0,44.293h33.22v16.61h-33.22Zm38.756-22.146h33.22V60.9h-33.22Zm38.756,0H227V60.9H193.78ZM193.78,0H227V16.61H193.78ZM77.512,88.585h33.22V105.2H77.512ZM38.756,44.293h33.22V60.9H38.756ZM0,66.439H33.22v16.61H0ZM0,88.585H33.22V105.2H0Zm38.756,0h33.22V105.2H38.756Zm38.756,22.146h33.22v16.61H77.512Zm-38.756,0h33.22v16.61H38.756Zm77.512,0h33.22v16.61h-33.22Zm38.756-22.146h33.22V105.2h-33.22Zm0-22.146h33.22v16.61h-33.22ZM193.78,88.585H227V105.2H193.78Zm0,22.146H227v16.61H193.78ZM38.756,66.439h33.22v16.61H38.756ZM77.512,44.293h33.22V60.9H77.512ZM38.756,22.146h33.22v16.61H38.756ZM0,22.146H33.22v16.61H0Z"/></g></g><g class="c" transform="translate(1693 316)"><g transform="translate(0 5.329)"><path class="d" d="M0,0H33.22V16.61H0ZM77.512,22.146h33.22v16.61H77.512ZM116.268,0h33.22V16.61h-33.22Zm38.756,0h33.22V16.61h-33.22Zm0,22.146h33.22v16.61h-33.22Zm-38.756,0h33.22v16.61h-33.22Zm0,44.293h33.22v16.61h-33.22Zm38.756-22.146h33.22V60.9h-33.22Zm38.756,0H227V60.9H193.78ZM193.78,0H227V16.61H193.78ZM77.512,88.585h33.22V105.2H77.512ZM38.756,44.293h33.22V60.9H38.756ZM0,66.439H33.22v16.61H0ZM0,88.585H33.22V105.2H0Zm38.756,0h33.22V105.2H38.756Zm38.756,22.146h33.22v16.61H77.512Zm-38.756,0h33.22v16.61H38.756Zm77.512,0h33.22v16.61h-33.22Zm38.756-22.146h33.22V105.2h-33.22Zm0-22.146h33.22v16.61h-33.22ZM193.78,88.585H227V105.2H193.78Zm0,22.146H227v16.61H193.78ZM38.756,66.439h33.22v16.61H38.756ZM77.512,44.293h33.22V60.9H77.512ZM38.756,22.146h33.22v16.61H38.756ZM0,22.146H33.22v16.61H0Z"/></g></g><g class="c" transform="translate(0 474)"><g transform="translate(0 5.329)"><path class="d" d="M0,0H33.22V16.61H0ZM77.512,22.146h33.22v16.61H77.512ZM116.268,0h33.22V16.61h-33.22Zm38.756,0h33.22V16.61h-33.22Zm0,22.146h33.22v16.61h-33.22Zm-38.756,0h33.22v16.61h-33.22Zm0,44.293h33.22v16.61h-33.22Zm38.756-22.146h33.22V60.9h-33.22Zm38.756,0H227V60.9H193.78ZM193.78,0H227V16.61H193.78ZM77.512,88.585h33.22V105.2H77.512ZM38.756,44.293h33.22V60.9H38.756ZM0,66.439H33.22v16.61H0ZM0,88.585H33.22V105.2H0Zm38.756,0h33.22V105.2H38.756Zm38.756,22.146h33.22v16.61H77.512Zm-38.756,0h33.22v16.61H38.756Zm77.512,0h33.22v16.61h-33.22Zm38.756-22.146h33.22V105.2h-33.22Zm0-22.146h33.22v16.61h-33.22ZM193.78,88.585H227V105.2H193.78Zm0,22.146H227v16.61H193.78ZM38.756,66.439h33.22v16.61H38.756ZM77.512,44.293h33.22V60.9H77.512ZM38.756,22.146h33.22v16.61H38.756ZM0,22.146H33.22v16.61H0Z"/></g></g><g class="c" transform="translate(247 474)"><g transform="translate(0 5.329)"><path class="d" d="M0,0H33.22V16.61H0ZM77.512,22.146h33.22v16.61H77.512ZM116.268,0h33.22V16.61h-33.22Zm38.756,0h33.22V16.61h-33.22Zm0,22.146h33.22v16.61h-33.22Zm-38.756,0h33.22v16.61h-33.22Zm0,44.293h33.22v16.61h-33.22Zm38.756-22.146h33.22V60.9h-33.22Zm38.756,0H227V60.9H193.78ZM193.78,0H227V16.61H193.78ZM77.512,88.585h33.22V105.2H77.512ZM38.756,44.293h33.22V60.9H38.756ZM0,66.439H33.22v16.61H0ZM0,88.585H33.22V105.2H0Zm38.756,0h33.22V105.2H38.756Zm38.756,22.146h33.22v16.61H77.512Zm-38.756,0h33.22v16.61H38.756Zm77.512,0h33.22v16.61h-33.22Zm38.756-22.146h33.22V105.2h-33.22Zm0-22.146h33.22v16.61h-33.22ZM193.78,88.585H227V105.2H193.78Zm0,22.146H227v16.61H193.78ZM38.756,66.439h33.22v16.61H38.756ZM77.512,44.293h33.22V60.9H77.512ZM38.756,22.146h33.22v16.61H38.756ZM0,22.146H33.22v16.61H0Z"/></g></g><g class="e" transform="translate(483.714 474)"><g transform="translate(0 5.329)"><path class="d" d="M0,0H33.22V16.61H0ZM77.512,22.146h33.22v16.61H77.512ZM116.268,0h33.22V16.61h-33.22Zm38.756,0h33.22V16.61h-33.22Zm0,22.146h33.22v16.61h-33.22Zm-38.756,0h33.22v16.61h-33.22Zm0,44.293h33.22v16.61h-33.22Zm38.756-22.146h33.22V60.9h-33.22Zm38.756,0H227V60.9H193.78ZM193.78,0H227V16.61H193.78ZM77.512,88.585h33.22V105.2H77.512ZM38.756,44.293h33.22V60.9H38.756ZM0,66.439H33.22v16.61H0ZM0,88.585H33.22V105.2H0Zm38.756,0h33.22V105.2H38.756Zm38.756,22.146h33.22v16.61H77.512Zm-38.756,0h33.22v16.61H38.756Zm77.512,0h33.22v16.61h-33.22Zm38.756-22.146h33.22V105.2h-33.22Zm0-22.146h33.22v16.61h-33.22ZM193.78,88.585H227V105.2H193.78Zm0,22.146H227v16.61H193.78ZM38.756,66.439h33.22v16.61H38.756ZM77.512,44.293h33.22V60.9H77.512ZM38.756,22.146h33.22v16.61H38.756ZM0,22.146H33.22v16.61H0Z"/></g></g><g class="f" transform="translate(725.571 474)"><g transform="translate(0 5.329)"><path class="d" d="M0,0H33.22V16.61H0ZM77.512,22.146h33.22v16.61H77.512ZM116.268,0h33.22V16.61h-33.22Zm38.756,0h33.22V16.61h-33.22Zm0,22.146h33.22v16.61h-33.22Zm-38.756,0h33.22v16.61h-33.22Zm0,44.293h33.22v16.61h-33.22Zm38.756-22.146h33.22V60.9h-33.22Zm38.756,0H227V60.9H193.78ZM193.78,0H227V16.61H193.78ZM77.512,88.585h33.22V105.2H77.512ZM38.756,44.293h33.22V60.9H38.756ZM0,66.439H33.22v16.61H0ZM0,88.585H33.22V105.2H0Zm38.756,0h33.22V105.2H38.756Zm38.756,22.146h33.22v16.61H77.512Zm-38.756,0h33.22v16.61H38.756Zm77.512,0h33.22v16.61h-33.22Zm38.756-22.146h33.22V105.2h-33.22Zm0-22.146h33.22v16.61h-33.22ZM193.78,88.585H227V105.2H193.78Zm0,22.146H227v16.61H193.78ZM38.756,66.439h33.22v16.61H38.756ZM77.512,44.293h33.22V60.9H77.512ZM38.756,22.146h33.22v16.61H38.756ZM0,22.146H33.22v16.61H0Z"/></g></g><g class="g" transform="translate(967.429 474)"><g transform="translate(0 5.329)"><path class="d" d="M0,0H33.22V16.61H0ZM77.512,22.146h33.22v16.61H77.512ZM116.268,0h33.22V16.61h-33.22Zm38.756,0h33.22V16.61h-33.22Zm0,22.146h33.22v16.61h-33.22Zm-38.756,0h33.22v16.61h-33.22Zm0,44.293h33.22v16.61h-33.22Zm38.756-22.146h33.22V60.9h-33.22Zm38.756,0H227V60.9H193.78ZM193.78,0H227V16.61H193.78ZM77.512,88.585h33.22V105.2H77.512ZM38.756,44.293h33.22V60.9H38.756ZM0,66.439H33.22v16.61H0ZM0,88.585H33.22V105.2H0Zm38.756,0h33.22V105.2H38.756Zm38.756,22.146h33.22v16.61H77.512Zm-38.756,0h33.22v16.61H38.756Zm77.512,0h33.22v16.61h-33.22Zm38.756-22.146h33.22V105.2h-33.22Zm0-22.146h33.22v16.61h-33.22ZM193.78,88.585H227V105.2H193.78Zm0,22.146H227v16.61H193.78ZM38.756,66.439h33.22v16.61H38.756ZM77.512,44.293h33.22V60.9H77.512ZM38.756,22.146h33.22v16.61H38.756ZM0,22.146H33.22v16.61H0Z"/></g></g><g class="h" transform="translate(1209.286 474)"><g transform="translate(0 5.329)"><path class="d" d="M0,0H33.22V16.61H0ZM77.512,22.146h33.22v16.61H77.512ZM116.268,0h33.22V16.61h-33.22Zm38.756,0h33.22V16.61h-33.22Zm0,22.146h33.22v16.61h-33.22Zm-38.756,0h33.22v16.61h-33.22Zm0,44.293h33.22v16.61h-33.22Zm38.756-22.146h33.22V60.9h-33.22Zm38.756,0H227V60.9H193.78ZM193.78,0H227V16.61H193.78ZM77.512,88.585h33.22V105.2H77.512ZM38.756,44.293h33.22V60.9H38.756ZM0,66.439H33.22v16.61H0ZM0,88.585H33.22V105.2H0Zm38.756,0h33.22V105.2H38.756Zm38.756,22.146h33.22v16.61H77.512Zm-38.756,0h33.22v16.61H38.756Zm77.512,0h33.22v16.61h-33.22Zm38.756-22.146h33.22V105.2h-33.22Zm0-22.146h33.22v16.61h-33.22ZM193.78,88.585H227V105.2H193.78Zm0,22.146H227v16.61H193.78ZM38.756,66.439h33.22v16.61H38.756ZM77.512,44.293h33.22V60.9H77.512ZM38.756,22.146h33.22v16.61H38.756ZM0,22.146H33.22v16.61H0Z"/></g></g><g class="c" transform="translate(1446 474)"><g transform="translate(0 5.329)"><path class="d" d="M0,0H33.22V16.61H0ZM77.512,22.146h33.22v16.61H77.512ZM116.268,0h33.22V16.61h-33.22Zm38.756,0h33.22V16.61h-33.22Zm0,22.146h33.22v16.61h-33.22Zm-38.756,0h33.22v16.61h-33.22Zm0,44.293h33.22v16.61h-33.22Zm38.756-22.146h33.22V60.9h-33.22Zm38.756,0H227V60.9H193.78ZM193.78,0H227V16.61H193.78ZM77.512,88.585h33.22V105.2H77.512ZM38.756,44.293h33.22V60.9H38.756ZM0,66.439H33.22v16.61H0ZM0,88.585H33.22V105.2H0Zm38.756,0h33.22V105.2H38.756Zm38.756,22.146h33.22v16.61H77.512Zm-38.756,0h33.22v16.61H38.756Zm77.512,0h33.22v16.61h-33.22Zm38.756-22.146h33.22V105.2h-33.22Zm0-22.146h33.22v16.61h-33.22ZM193.78,88.585H227V105.2H193.78Zm0,22.146H227v16.61H193.78ZM38.756,66.439h33.22v16.61H38.756ZM77.512,44.293h33.22V60.9H77.512ZM38.756,22.146h33.22v16.61H38.756ZM0,22.146H33.22v16.61H0Z"/></g></g><g class="c" transform="translate(1693 474)"><g transform="translate(0 5.329)"><path class="d" d="M0,0H33.22V16.61H0ZM77.512,22.146h33.22v16.61H77.512ZM116.268,0h33.22V16.61h-33.22Zm38.756,0h33.22V16.61h-33.22Zm0,22.146h33.22v16.61h-33.22Zm-38.756,0h33.22v16.61h-33.22Zm0,44.293h33.22v16.61h-33.22Zm38.756-22.146h33.22V60.9h-33.22Zm38.756,0H227V60.9H193.78ZM193.78,0H227V16.61H193.78ZM77.512,88.585h33.22V105.2H77.512ZM38.756,44.293h33.22V60.9H38.756ZM0,66.439H33.22v16.61H0ZM0,88.585H33.22V105.2H0Zm38.756,0h33.22V105.2H38.756Zm38.756,22.146h33.22v16.61H77.512Zm-38.756,0h33.22v16.61H38.756Zm77.512,0h33.22v16.61h-33.22Zm38.756-22.146h33.22V105.2h-33.22Zm0-22.146h33.22v16.61h-33.22ZM193.78,88.585H227V105.2H193.78Zm0,22.146H227v16.61H193.78ZM38.756,66.439h33.22v16.61H38.756ZM77.512,44.293h33.22V60.9H77.512ZM38.756,22.146h33.22v16.61H38.756ZM0,22.146H33.22v16.61H0Z"/></g></g></g></svg>