<svg xmlns="http://www.w3.org/2000/svg" width="36" height="36" viewBox="0 0 36 36"><defs><style>.a{fill:#5e79bd;}</style></defs><path class="a" d="M25.047.274a7.182,7.182,0,0,0-6,4,13.108,13.108,0,0,1,3,9,19.791,19.791,0,0,1,0,4,6.784,6.784,0,0,0,3,1c3.735,0,6-4.05,6-9S28.782.274,25.047.274Zm-14,4c-3.735,0-7,4.05-7,9s3.265,9,7,9,7-4.05,7-9S14.782,4.274,11.047,4.274Zm22,14a11.322,11.322,0,0,1-8,4,10.321,10.321,0,0,1,2,6v3h9v-7C36.047,21.934,35.027,19.264,33.047,18.274Zm-30,5a5.185,5.185,0,0,0-3,5v8h22v-8a5.185,5.185,0,0,0-3-5,10.683,10.683,0,0,1-8,4A10.835,10.835,0,0,1,3.047,23.274Z" transform="translate(-0.047 -0.274)"/></svg>