<svg xmlns="http://www.w3.org/2000/svg" width="40.319" height="31.094" viewBox="0 0 40.319 31.094"><defs><style>.a{fill:#5e79bd;}</style></defs><path class="a" d="M20,10.253l-13,11v11a.923.923,0,0,0,1,1h8a.927.927,0,0,0,1-1v-6c0-.621.379-2,1-2h5c.621,0,1,1.379,1,2v6c0,.3-.211.788,0,1s.7,0,1,0h8a.923.923,0,0,0,1-1v-11l-13-11A.754.754,0,0,0,20,10.253Zm20,7-6-4v-10a1.135,1.135,0,0,0-1-1H30a1.135,1.135,0,0,0-1,1v5l-7-5a2.985,2.985,0,0,0-4,0l-18,14a2.153,2.153,0,0,0,0,2l2,2c.142.173.777-.021,1,0s-.173.143,0,0l17-14a.754.754,0,0,1,1,0l16,14a2.153,2.153,0,0,0,2,0l1-2c.143-.173.022-.777,0-1S40.172,17.4,40,17.253Z" transform="translate(0.249 -2.253)"/></svg>